<svg xmlns="http://www.w3.org/2000/svg" width="300" height="58.365" viewBox="0 0 300 58.365">
  <g transform="translate(-14.3 -36)">
    <path d="M52.893,86.191a21.254,21.254,0,0,1-17.015,8.365A21.578,21.578,0,1,1,52.893,59.765l-8.08,6.179a11.359,11.359,0,1,0,0,13.973Z" transform="translate(0 -0.761)" fill="#51257d" />
    <path d="M82.178,94.556a21.578,21.578,0,1,1,21.578-21.578A21.623,21.623,0,0,1,82.178,94.556Zm0-32.89A11.359,11.359,0,1,0,93.49,73.073,11.359,11.359,0,0,0,82.178,61.666Z" transform="translate(-2.289 -0.761)" fill="#ffb045" />
    <path d="M99.193,86.191a21.254,21.254,0,0,1-17.015,8.365A21.578,21.578,0,1,1,99.193,59.765l-8.08,6.179a11.359,11.359,0,1,0,0,13.973Z" transform="translate(-2.289 -0.761)" fill="#51257d" />
    <path d="M143.527,69.181c0-5.8-3.042-7.795-7.7-7.795a12.244,12.244,0,0,0-9.6,4.943V94.656H115.2V52.546h11.027v5.513A19.114,19.114,0,0,1,140.96,51.5c9.221,0,13.688,5.228,13.688,13.4V94.561H143.527Z" transform="translate(-4.987 -0.766)" fill="#51257d" />
    <path d="M169.148,80.748a24.155,24.155,0,0,0,14.544,5.7c4.753,0,7.034-1.616,7.034-4.278,0-2.947-3.612-3.992-8.46-4.943-7.224-1.426-16.54-3.137-16.54-13.118,0-7.034,6.179-13.213,17.205-13.213a26.949,26.949,0,0,1,16.92,5.7l-4.373,7.6a17.984,17.984,0,0,0-12.452-4.848c-3.992,0-6.654,1.521-6.654,3.9,0,2.567,3.327,3.612,7.985,4.563,7.224,1.426,16.92,3.327,16.92,13.783,0,7.7-6.559,13.5-18.156,13.5-7.319,0-14.354-2.471-18.821-6.559Z" transform="translate(-7.414 -0.737)" fill="#51257d" />
    <path d="M232.778,94.556a21.578,21.578,0,1,1,21.578-21.578A21.623,21.623,0,0,1,232.778,94.556Zm0-32.89A11.359,11.359,0,1,0,244.09,73.073,11.359,11.359,0,0,0,232.778,61.666Z" transform="translate(-9.733 -0.761)" fill="#51257d" />
    <path d="M264.4,36h11.027V94.08H264.4Z" transform="translate(-12.362)" fill="#51257d" />
    <path d="M306.568,50.9c12.548,0,21.1,9.411,21.1,23.194v2.471H296.4c.665,5.323,4.943,9.791,12.072,9.791,3.9,0,8.555-1.521,11.217-4.183l4.848,7.129c-4.278,3.9-10.836,5.8-17.3,5.8-12.833,0-22.433-8.65-22.433-22.148C284.8,60.786,293.735,50.9,306.568,50.9ZM296.207,69.056h20.722c-.285-3.992-3.042-9.316-10.361-9.316C299.629,59.74,296.682,64.873,296.207,69.056Z" transform="translate(-13.371 -0.737)" fill="#51257d" />
  </g>
</svg>