<svg xmlns="http://www.w3.org/2000/svg" xmlns:xlink="http://www.w3.org/1999/xlink" width="100" height="100" viewBox="0 0 100 100">
    <g transform="translate(-0.857 -0.654)">
 	    <path d="M50.857,100.654a50,50,0,1,1,50-50C100.637,78.187,78.39,100.654,50.857,100.654Zm0-76.211A26.322,26.322,0,1,0,77.068,50.874,26.321,26.321,0,0,0,50.857,24.442Z" fill="#EDB819" />
        <path d="M90.285,81.271a49.25,49.25,0,0,1-39.427,19.383A50,50,0,1,1,90.285,20.037L71.562,34.354a26.322,26.322,0,1,0,0,32.379Z" fill="#51257c" />
    </g>
</svg>